<svg xmlns="http://www.w3.org/2000/svg" width="17" height="17" viewBox="0 0 17 17" fill="none">
    <path d="M8.33333 0C3.73333 0 0 3.73333 0 8.33333C0 12.9333 3.73333 16.6667 8.33333 16.6667C12.9333 16.6667 16.6667 12.9333 16.6667 8.33333C16.6667 3.73333 12.9333 0 8.33333 0ZM9.50833 13.4083V15H7.28333V13.3917C5.85833 13.0917 4.65 12.175 4.55833 10.5583H6.19167C6.275 11.4333 6.875 12.1167 8.4 12.1167C10.0333 12.1167 10.4 11.3 10.4 10.7917C10.4 10.1 10.0333 9.45 8.175 9.00833C6.10833 8.50833 4.69167 7.65833 4.69167 5.95C4.69167 4.51667 5.85 3.58333 7.28333 3.275V1.66667H9.50833V3.29167C11.0583 3.66667 11.8333 4.84167 11.8833 6.11667H10.25C10.2083 5.19167 9.71667 4.55833 8.4 4.55833C7.15 4.55833 6.4 5.125 6.4 5.925C6.4 6.625 6.94167 7.08333 8.625 7.51667C10.3083 7.95 12.1083 8.675 12.1083 10.775C12.1 12.3 10.9583 13.1333 9.50833 13.4083Z" fill="currentColor"/>
</svg>